<svg aria-hidden="true" style="position:absolute;width:0;height:0;overflow:hidden" xmlns="http://www.w3.org/2000/svg">
    <defs>
        <symbol id="check" viewBox="0 0 32 32">
            <path
                d="M28.4 4.3v23.4H3.6V4.3h24.8zm0-3.3H3.6C1.6 1 0 2.5 0 4.3v23.4C0 29.5 1.6 31 3.6 31h24.8c2 0 3.6-1.5 3.6-3.3V4.3C32 2.5 30.4 1 28.4 1z" />
        </symbol>
        <symbol id="checkOK" viewBox="0 0 32 32">
            <path fill="#fff" style="fill:var(--color1, #fff);stroke:var(--color1, #fff)" stroke="#fff"
                stroke-width=".5" d="m4.8 15.4-.2-.2-2.5 2.4 9 8.6 18.8-18-2.5-2.4L11 21.4l-6.3-6z" />
        </symbol>
        <symbol id="close" viewBox="0 0 32 32">
            <path d="m26.7 7.3-2-2-7.8 7.8L9 5.3l-2 2 7.8 7.8L7.1 23l2 2 7.8-7.8 7.8 7.8 2-2-7.8-7.8 7.8-7.8z" />
        </symbol>
        <symbol id="email" viewBox="0 0 32 32">
            <path
                d="M26.7 5.3H5.3A2.7 2.7 0 0 0 2.7 8v16c0 1.5 1.2 2.7 2.6 2.7h21.4c1.4 0 2.6-1.2 2.6-2.7V8c0-1.5-1.2-2.7-2.6-2.7zM26 11l-9.4 5.9c-.4.3-1 .3-1.4 0L5.9 11c-.4-.2-.6-.6-.6-1 0-.9 1-1.4 1.8-1l8.9 5.7L25 9A1.1 1.1 0 1 1 26 11z" />
        </symbol>
        <symbol id="phone" viewBox="0 0 32 32">
            <path
                d="m24.9 19.8-3.3-.4c-.8 0-1.5.2-2.1.7l-2.4 2.4A19.4 19.4 0 0 1 8.7 14l2.3-2.4c.6-.5.9-1.3.8-2l-.4-3.3A2.6 2.6 0 0 0 8.8 4H6.6A2.6 2.6 0 0 0 4 6.7c.7 11 9.5 19.7 20.5 20.4 1.4.1 2.6-1.1 2.6-2.6v-2.2c0-1.3-1-2.4-2.2-2.5z" />
        </symbol>
    </defs>
</svg>